<svg width="430" height="596" viewBox="0 0 430 596" fill="none" xmlns="http://www.w3.org/2000/svg">
<mask id="path-1-inside-1_2_2562" fill="white">
<path d="M55.344 585.155C101.835 597.612 150.655 598.603 197.613 588.041C244.571 577.48 288.265 555.682 324.946 524.519C361.626 493.356 390.198 453.757 408.207 409.123C426.217 364.488 433.128 316.15 428.346 268.257C423.564 220.364 407.233 174.346 380.754 134.153C354.274 93.9605 318.438 60.7929 276.32 37.497C234.202 14.2012 187.061 1.47281 138.941 0.404333C90.8221 -0.66414 43.162 9.95917 0.0516287 31.3625L132.338 297.811L55.344 585.155Z"/>
</mask>
<path d="M55.344 585.155C101.835 597.612 150.655 598.603 197.613 588.041C244.571 577.48 288.265 555.682 324.946 524.519C361.626 493.356 390.198 453.757 408.207 409.123C426.217 364.488 433.128 316.15 428.346 268.257C423.564 220.364 407.233 174.346 380.754 134.153C354.274 93.9605 318.438 60.7929 276.32 37.497C234.202 14.2012 187.061 1.47281 138.941 0.404333C90.8221 -0.66414 43.162 9.95917 0.0516287 31.3625L132.338 297.811L55.344 585.155Z" stroke="#4C6B89" stroke-width="2" mask="url(#path-1-inside-1_2_2562)"/>
</svg>
